<?xml version="1.0" encoding="UTF-8"?>
<svg id="Camada_1" data-name="Camada 1" xmlns="http://www.w3.org/2000/svg" viewBox="0 0 826.15 150">
  <defs>
    <style>
      .cls-1 {
        fill: #00435a;
      }
    </style>
  </defs>
  <path class="cls-1" d="M368.67,44.59c-9.57-21.96-27.42-33.9-49.65-40.18-18.84-5.28-37.95-5.49-57.17-2.33-15.3,2.5-29.72,7.58-42.17,17.05-18.02,13.62-26.08,32.15-26.32,54.49-.34,30.75,15.27,54.56,43.61,66.57,15.51,6.55,31.71,10.34,48.49,9.75,7.97-.28,15.89-1.3,23.71-2.68,17.4-2.95,33.11-9.75,45.81-22.37,19.49-19.42,25.32-53.6,13.69-80.3Zm-37.03,65.75c-9.23,14.17-22.61,21.62-39.22,23.09-19.9,1.78-37.85-2.95-51.71-18.29-10.02-11.08-13.76-24.64-13.97-39.26-.27-16.51,3.81-31.6,15.72-43.79,8.65-8.89,19.42-13.73,31.54-15.68,13.69-2.2,26.97-1.03,39.36,5.59,14.34,7.69,22.58,20.07,26.05,35.69,1.2,5.46,1.76,11.1,1.92,14.03,.88,15.45-2.57,27.73-9.68,38.6Z"/>
  <path class="cls-1" d="M761.54,44.66c-9.54-21.96-27.38-33.94-49.62-40.22-18.8-5.32-37.95-5.52-57.13-2.4-15.34,2.54-29.72,7.58-42.21,17.05-18.02,13.62-26.11,32.15-26.39,54.46-.38,30.75,15.3,54.63,43.58,66.61,15.58,6.62,31.92,10.39,48.8,9.75,7.93-.3,15.89-1.3,23.71-2.68,17.36-3.02,33.08-9.85,45.71-22.55,19.35-19.42,25.12-53.43,13.55-80.02Zm-37.06,65.71c-9.23,14.17-22.65,21.62-39.26,23.06-19.9,1.75-37.82-2.95-51.68-18.32-10.02-11.08-13.76-24.67-13.97-39.26-.24-16.51,3.84-31.6,15.75-43.79,7.96-8.17,17.78-12.9,28.86-15.13,12.8-2.61,25.46-2.13,37.61,2.99,16.03,6.79,25.74,19.15,29.92,35.76,1.58,6.21,2.68,12.6,2.95,19.01,.55,12.78-3.16,24.88-10.19,35.69Z"/>
  <path class="cls-1" d="M561.73,62.13c-3.16-22.68-14.72-39.74-35.1-50.51-13.31-7.03-27.69-9.64-42.58-9.68-26.08-.07-52.16-.03-78.24-.03h-3.05V147.4h2.5c26.59,0,53.19,0,79.75-.03,9.78,0,19.39-1.37,28.69-4.39,19.53-6.31,34.32-18.22,42.72-37.3,6.14-13.93,7.38-28.62,5.32-43.55Zm-39.63,45.71c-7.55,15.96-20.83,24.33-38.64,24.64-16.16,.24-32.29,.03-48.45,.03-.41,0-.79-.1-1.34-.21V17.14c.38-.17,.58-.31,.75-.31,17.88,.1,35.82-.51,53.67,.55,16.92,1,28.69,10.95,35.14,26.29,9.02,21.38,8.82,43.13-1.13,64.17Z"/>
  <path class="cls-1" d="M135.82,82.89h-43.51v-14.62h72.94c.08,.86,.22,1.74,.23,2.61,.01,22.4,0,44.8,.02,67.2,0,1.63-.06,2.77-2.14,3.33-30.62,8.18-61.61,10.52-92.94,5.34-16.3-2.69-31.65-8.22-44.89-18.48C7.75,114.49-.23,96.02,0,73.78,.31,44.9,14.74,25.24,40.15,13.02,56.31,5.25,73.62,1.94,91.39,.67c23.5-1.68,46.75,.4,70.07,4.52v15.12c-6.03-.93-11.93-2.05-17.88-2.7-20.67-2.26-41.37-4.03-61.92,.95-14.74,3.57-27.82,10.07-37.4,22.35-9.12,11.69-11.81,25.16-10.71,39.57,2.04,26.6,19.73,43.69,44.81,50.31,15.19,4.01,30.59,3.41,46.02,2.23,3.16-.24,6.3-.73,9.45-.99,1.6-.13,2.36-.66,2.35-2.42-.06-15.14-.04-30.27-.06-45.41,0-.29-.13-.58-.31-1.29Z"/>
  <path class="cls-1" d="M795.71,2h30.44V147.19h-30.44V2Z"/>
</svg>