<?xml version="1.0" encoding="UTF-8"?>
<svg id="Camada_1" data-name="Camada 1" xmlns="http://www.w3.org/2000/svg" viewBox="0 0 1214.18 330.82">
  <g>
    <path d="M305.27,124.99c0,15.67-2.92,30.69-8.16,44.51-3.17,8.27-7.18,16.11-11.92,23.44-1.57,2.41-3.21,4.77-4.96,7.07-7.07,9.48-15.49,17.9-24.97,25-13.41,10.06-28.9,17.5-45.74,21.54l-21.54-21.54-.25-.29c5.39-.36,10.68-1.2,15.78-2.44,27.15-6.45,49.97-23.98,63.5-47.53,4.48-7.76,7.95-16.22,10.21-25.15,1.97-7.87,3.03-16.11,3.03-24.6s-1.06-16.69-3.03-24.57c-2.26-8.93-5.72-17.39-10.21-25.15-4.19-7.36-9.33-14.14-15.2-20.16-9.88-10.1-21.83-18.12-35.25-23.33-4.19-1.64-8.57-3.03-13.05-4.08-5.1-1.2-10.39-2.04-15.75-2.44l-12.98,12.98-4.48,4.45-17.68,17.68L87.99,125.02l46.95,46.95-17.68,17.68L52.63,125.02l2.62-2.66,15.05-15.02L134.94,42.68l14.65-14.65,3.03-3.03,.04-.04L177.62,0h2.62c10.1,0,19.94,1.17,29.31,3.43,9.11,2.19,17.79,5.36,25.95,9.4,7,3.46,13.6,7.51,19.76,12.14,5.03,3.79,9.8,7.95,14.22,12.47,3.86,3.94,7.47,8.13,10.75,12.54,1.75,2.3,3.39,4.67,4.99,7.11,4.74,7.29,8.75,15.16,11.88,23.44,5.25,13.81,8.16,28.8,8.16,44.47Z"/>
    <path d="M252.63,125.02l-2.66,2.59-30.65,30.69-91.67,91.67h-.04c-.87,0-1.71,.04-2.59,.04-10.1,0-19.9-1.2-29.31-3.46-9.08-2.19-17.79-5.36-25.95-9.4-7-3.43-13.6-7.51-19.76-12.14-5.07-3.79-9.8-7.95-14.22-12.47-3.86-3.94-7.47-8.13-10.79-12.54-1.75-2.3-3.39-4.67-4.92-7.07-4.77-7.33-8.78-15.16-11.92-23.44C2.88,155.68,0,140.66,0,124.99s2.88-30.65,8.13-44.47c3.17-8.27,7.18-16.15,11.92-23.44,1.57-2.44,3.21-4.81,4.96-7.11,7.11-9.44,15.53-17.9,25-25C63.39,14.91,78.88,7.47,95.68,3.43l21.83,21.83c-5.39,.4-10.68,1.24-15.78,2.44-27.15,6.49-49.97,23.98-63.5,47.57-4.48,7.76-7.95,16.22-10.21,25.15-1.97,7.87-3.03,16.11-3.03,24.57s1.06,16.73,3.06,24.6c2.22,8.93,5.69,17.39,10.17,25.19,4.23,7.33,9.37,14.11,15.24,20.12,9.88,10.1,21.83,18.08,35.25,23.29,4.19,1.64,8.53,3.03,13.01,4.08,5.1,1.24,10.39,2.08,15.82,2.44l60.07-60.07,39.66-39.62-31.35-31.35-15.64-15.64,17.68-17.68,62,62.04,2.66,2.62Z"/>
  </g>
  <g>
    <path d="M756.69,94.59c-9.57-21.96-27.42-33.9-49.66-40.18-18.84-5.28-37.95-5.49-57.17-2.33-15.31,2.51-29.72,7.58-42.17,17.05-18.02,13.62-26.08,32.15-26.32,54.49-.34,30.75,15.27,54.56,43.62,66.57,15.51,6.55,31.71,10.34,48.49,9.75,7.97-.28,15.89-1.3,23.71-2.68,17.4-2.95,33.12-9.75,45.81-22.37,19.49-19.42,25.33-53.6,13.69-80.3Zm-37.03,65.75c-9.23,14.17-22.61,21.62-39.22,23.09-19.9,1.78-37.85-2.95-51.71-18.29-10.02-11.08-13.76-24.64-13.97-39.26-.27-16.51,3.81-31.61,15.72-43.79,8.65-8.89,19.42-13.73,31.54-15.68,13.69-2.2,26.97-1.03,39.36,5.59,14.34,7.69,22.58,20.07,26.05,35.69,1.2,5.46,1.76,11.1,1.92,14.04,.88,15.45-2.57,27.73-9.68,38.61Z"/>
    <path d="M1149.57,94.66c-9.54-21.96-27.38-33.94-49.62-40.22-18.81-5.32-37.95-5.52-57.14-2.4-15.34,2.54-29.72,7.58-42.21,17.06-18.02,13.62-26.11,32.15-26.39,54.46-.38,30.75,15.3,54.63,43.58,66.61,15.58,6.62,31.92,10.39,48.8,9.75,7.93-.3,15.89-1.3,23.71-2.68,17.36-3.02,33.08-9.85,45.71-22.55,19.35-19.42,25.12-53.43,13.55-80.03Zm-37.06,65.72c-9.23,14.17-22.65,21.62-39.26,23.06-19.9,1.75-37.82-2.95-51.68-18.32-10.02-11.08-13.76-24.67-13.97-39.26-.24-16.51,3.84-31.61,15.75-43.79,7.96-8.17,17.78-12.9,28.86-15.13,12.8-2.61,25.46-2.13,37.61,2.99,16.03,6.79,25.74,19.15,29.92,35.76,1.58,6.21,2.68,12.6,2.95,19.01,.55,12.78-3.16,24.88-10.19,35.69Z"/>
    <path d="M949.75,112.13c-3.16-22.68-14.72-39.74-35.11-50.51-13.31-7.03-27.69-9.64-42.59-9.68-26.08-.07-52.16-.03-78.24-.03h-3.05V197.41h2.51c26.59,0,53.19,0,79.75-.03,9.78,0,19.39-1.37,28.69-4.39,19.53-6.31,34.32-18.22,42.72-37.3,6.14-13.93,7.38-28.62,5.32-43.55Zm-39.64,45.71c-7.55,15.96-20.83,24.33-38.64,24.64-16.16,.24-32.29,.03-48.45,.03-.41,0-.79-.1-1.34-.21V67.14c.38-.17,.58-.31,.75-.31,17.88,.1,35.83-.51,53.67,.55,16.92,1,28.69,10.95,35.14,26.29,9.03,21.38,8.82,43.14-1.13,64.17Z"/>
    <path d="M523.83,132.9h-43.51v-14.62h72.94c.08,.86,.22,1.74,.23,2.61,.01,22.4,0,44.8,.02,67.2,0,1.63-.06,2.77-2.14,3.33-30.62,8.18-61.61,10.52-92.95,5.34-16.3-2.69-31.65-8.22-44.89-18.48-17.77-13.78-25.76-32.24-25.52-54.49,.31-28.88,14.73-48.53,40.15-60.76,16.16-7.77,33.46-11.08,51.23-12.35,23.5-1.68,46.75,.4,70.07,4.52v15.12c-6.03-.93-11.93-2.06-17.88-2.7-20.67-2.26-41.37-4.03-61.92,.95-14.74,3.57-27.82,10.07-37.4,22.35-9.12,11.69-11.81,25.16-10.71,39.58,2.04,26.6,19.73,43.69,44.81,50.32,15.19,4.01,30.59,3.41,46.02,2.23,3.16-.24,6.3-.73,9.45-.99,1.6-.13,2.36-.66,2.35-2.42-.06-15.14-.04-30.28-.06-45.41,0-.29-.13-.58-.31-1.29Z"/>
    <path d="M1183.74,52.01h30.44V197.2h-30.44V52.01Z"/>
  </g>
  <g>
    <polygon points="388.01 330.04 396.57 330.04 396.57 309.42 420.68 309.42 420.68 303.31 396.57 303.31 396.57 288.91 423.2 288.91 423.2 282.76 388.01 282.76 388.01 330.04"/>
    <path d="M479.52,313.28c0,2.14-.56,4.04-1.68,5.7-1.12,1.66-2.73,2.97-4.82,3.91-2.1,.95-4.59,1.42-7.47,1.42s-5.34-.47-7.43-1.42c-2.09-.95-3.7-2.25-4.84-3.91-1.14-1.66-1.7-3.56-1.7-5.7v-30.51h-8.56v31.09c0,3.31,.93,6.24,2.8,8.78s4.49,4.55,7.87,6c3.38,1.45,7.34,2.18,11.86,2.18s8.51-.73,11.89-2.18c3.38-1.45,6-3.45,7.87-6s2.8-5.47,2.8-8.78v-31.09h-8.59v30.51Z"/>
    <path d="M541.04,310.32c2.91-1.22,5.09-2.92,6.54-5.11s2.18-4.74,2.18-7.63-.72-5.47-2.16-7.7c-1.44-2.22-3.62-3.97-6.53-5.23-2.91-1.26-6.56-1.89-10.96-1.89h-20.23v47.27h8.56v-17.89h11.64c.19,0,.36,0,.55,0l11.54,17.9h9.76l-12.57-19.11c.58-.18,1.15-.38,1.69-.6Zm-22.6-21.44h10.75c2.83,0,5.11,.35,6.86,1.05,1.75,.7,3.03,1.7,3.85,3.01,.82,1.31,1.23,2.85,1.23,4.64s-.41,3.29-1.22,4.55c-.81,1.26-2.09,2.22-3.84,2.89s-4.01,.99-6.78,.99h-10.86v-17.13Z"/>
    <polygon points="606.82 317.48 606.3 317.48 577.42 282.76 569.49 282.76 569.49 330.04 578.06 330.04 578.06 295.37 578.58 295.37 607.43 330.04 615.31 330.04 615.31 282.76 606.82 282.76 606.82 317.48"/>
    <rect x="637.06" y="282.76" width="8.56" height="47.27"/>
    <polygon points="664.59 288.91 682.27 288.91 682.27 330.04 690.81 330.04 690.81 288.91 708.52 288.91 708.52 282.76 664.59 282.76 664.59 288.91"/>
    <path d="M763.98,313.28c0,2.14-.56,4.04-1.68,5.7-1.12,1.66-2.72,2.97-4.82,3.91s-4.59,1.42-7.47,1.42-5.34-.47-7.43-1.42c-2.09-.95-3.7-2.25-4.84-3.91-1.13-1.66-1.7-3.56-1.7-5.7v-30.51h-8.56v31.09c0,3.31,.93,6.24,2.8,8.78s4.49,4.55,7.87,6c3.38,1.45,7.33,2.18,11.86,2.18s8.51-.73,11.89-2.18c3.38-1.45,6.01-3.45,7.87-6,1.86-2.55,2.8-5.47,2.8-8.78v-31.09h-8.59v30.51Z"/>
    <path d="M825.49,310.32c2.91-1.22,5.09-2.92,6.54-5.11,1.45-2.19,2.18-4.74,2.18-7.63s-.72-5.47-2.16-7.7c-1.44-2.22-3.62-3.97-6.53-5.23-2.91-1.26-6.56-1.89-10.96-1.89h-20.23v47.27h8.57v-17.89h11.64c.19,0,.36,0,.55,0l11.54,17.9h9.76l-12.57-19.11c.58-.18,1.15-.38,1.69-.6Zm-22.6-21.44h10.75c2.83,0,5.11,.35,6.86,1.05,1.75,.7,3.03,1.7,3.85,3.01s1.24,2.85,1.24,4.64-.41,3.29-1.22,4.55c-.81,1.26-2.09,2.22-3.84,2.89s-4,.99-6.78,.99h-10.86v-17.13Z"/>
    <polygon points="862.51 309.42 887.67 309.42 887.67 303.31 862.51 303.31 862.51 288.91 889.53 288.91 889.53 282.76 853.94 282.76 853.94 330.04 889.86 330.04 889.86 323.9 862.51 323.9 862.51 309.42"/>
    <path d="M948.77,311.5c-1.01-1.52-2.32-2.8-3.95-3.83s-3.39-1.86-5.29-2.49c-1.9-.63-3.76-1.13-5.57-1.5l-5.54-1.2c-1.11-.23-2.26-.53-3.46-.89-1.2-.36-2.32-.82-3.37-1.36s-1.88-1.23-2.52-2.04c-.64-.82-.96-1.78-.96-2.91,0-1.34,.47-2.53,1.4-3.59,.93-1.05,2.25-1.88,3.95-2.49,1.7-.61,3.72-.91,6.04-.91,3.25,0,5.95,.6,8.09,1.81,2.14,1.21,3.36,2.91,3.66,5.09h8.26c-.07-2.54-.96-4.79-2.66-6.75-1.7-1.96-4.02-3.5-6.97-4.63-2.95-1.12-6.34-1.68-10.19-1.68s-7.22,.57-10.25,1.7-5.43,2.71-7.21,4.74-2.66,4.41-2.66,7.13c0,3.29,1.33,5.94,3.98,7.94,2.65,2,6.25,3.52,10.79,4.55l6.71,1.52c2.03,.45,3.86,.96,5.47,1.55,1.62,.58,2.9,1.32,3.85,2.22s1.43,2.04,1.43,3.44c0,1.54-.55,2.88-1.64,4.03-1.09,1.15-2.58,2.04-4.48,2.68s-4.05,.96-6.47,.96c-2.2,0-4.22-.27-6.06-.82s-3.34-1.38-4.52-2.52c-1.17-1.13-1.84-2.55-2.01-4.26h-8.59c.18,2.85,1.15,5.3,2.91,7.37,1.76,2.07,4.18,3.67,7.29,4.79,3.1,1.12,6.78,1.69,11.03,1.69s8.22-.6,11.35-1.8,5.52-2.84,7.18-4.92c1.65-2.08,2.48-4.46,2.48-7.13,0-2.12-.5-3.95-1.51-5.47Z"/>
  </g>
</svg>