<?xml version="1.0" encoding="UTF-8"?>
<svg id="Camada_1" data-name="Camada 1" xmlns="http://www.w3.org/2000/svg" viewBox="0 0 305.29 250">
  <defs>
    <style>
      .cls-1 {
        fill: #01455a;
      }
    </style>
  </defs>
  <path class="cls-1" d="M305.26,124.98c0,15.67-2.92,30.69-8.16,44.5-3.17,8.27-7.18,16.11-11.92,23.44-1.57,2.41-3.21,4.77-4.96,7.07-7.07,9.48-15.49,17.9-24.97,25-13.41,10.06-28.9,17.5-45.74,21.54l-21.54-21.54-.25-.29c5.39-.36,10.68-1.2,15.78-2.44,27.15-6.45,49.97-23.98,63.49-47.53,4.48-7.76,7.95-16.22,10.21-25.15,1.97-7.87,3.03-16.11,3.03-24.6s-1.06-16.69-3.03-24.57c-2.26-8.93-5.72-17.39-10.21-25.15-4.19-7.36-9.33-14.14-15.2-20.16-9.88-10.1-21.83-18.12-35.25-23.33-4.19-1.64-8.57-3.03-13.05-4.08-5.1-1.2-10.39-2.04-15.75-2.44l-12.98,12.98-4.48,4.45-17.68,17.68L87.99,125.02l46.95,46.95-17.68,17.68L52.63,125.02l2.62-2.66,15.05-15.02L134.93,42.68l14.65-14.65,3.03-3.03,.04-.04L177.61,0h2.62c10.1,0,19.94,1.17,29.3,3.43,9.11,2.19,17.79,5.36,25.95,9.4,7,3.46,13.6,7.51,19.76,12.14,5.03,3.79,9.8,7.95,14.21,12.47,3.86,3.94,7.47,8.13,10.75,12.54,1.75,2.3,3.39,4.67,4.99,7.11,4.74,7.29,8.75,15.16,11.88,23.44,5.25,13.81,8.16,28.79,8.16,44.47Z"/>
  <path class="cls-1" d="M252.62,125.02l-2.66,2.59-30.65,30.69-91.67,91.67h-.04c-.87,0-1.71,.04-2.59,.04-10.1,0-19.9-1.2-29.3-3.46-9.08-2.19-17.79-5.36-25.95-9.4-7-3.43-13.6-7.51-19.76-12.14-5.07-3.79-9.8-7.95-14.21-12.47-3.86-3.94-7.47-8.13-10.79-12.54-1.75-2.3-3.39-4.67-4.92-7.07-4.77-7.33-8.78-15.16-11.92-23.44C2.88,155.67,0,140.65,0,124.98s2.88-30.65,8.13-44.47c3.17-8.27,7.18-16.15,11.92-23.44,1.57-2.44,3.21-4.81,4.96-7.11,7.11-9.44,15.53-17.9,25-25C63.38,14.91,78.87,7.47,95.68,3.43l21.83,21.83c-5.39,.4-10.68,1.24-15.78,2.44-27.15,6.49-49.97,23.98-63.49,47.57-4.48,7.76-7.95,16.22-10.21,25.15-1.97,7.87-3.03,16.11-3.03,24.57s1.06,16.73,3.06,24.6c2.22,8.93,5.69,17.39,10.17,25.19,4.23,7.33,9.37,14.11,15.24,20.12,9.88,10.1,21.83,18.08,35.25,23.29,4.19,1.64,8.53,3.03,13.01,4.08,5.1,1.24,10.39,2.08,15.82,2.44l60.07-60.07,39.66-39.62-31.35-31.35-15.64-15.64,17.68-17.68,62,62.04,2.66,2.62Z"/>
</svg>