<?xml version="1.0" encoding="UTF-8"?>
<svg id="Camada_1" data-name="Camada 1" xmlns="http://www.w3.org/2000/svg" viewBox="0 0 826.15 482.7">
  <defs>
    <style>
      .cls-1 {
        fill: #01455a;
      }

      .cls-2 {
        fill: #c89278;
      }
    </style>
  </defs>
  <g>
    <path class="cls-2" d="M565.7,124.98c0,15.67-2.92,30.69-8.16,44.5-3.17,8.27-7.18,16.11-11.92,23.44-1.57,2.41-3.21,4.77-4.96,7.07-7.07,9.48-15.49,17.9-24.97,25-13.41,10.06-28.9,17.5-45.74,21.54l-21.54-21.54-.25-.29c5.39-.36,10.68-1.2,15.78-2.44,27.15-6.45,49.97-23.98,63.49-47.53,4.48-7.76,7.95-16.22,10.21-25.15,1.97-7.87,3.03-16.11,3.03-24.6s-1.06-16.69-3.03-24.57c-2.26-8.93-5.72-17.39-10.21-25.15-4.19-7.36-9.33-14.14-15.2-20.16-9.88-10.1-21.83-18.12-35.25-23.33-4.19-1.64-8.57-3.03-13.05-4.08-5.1-1.2-10.39-2.04-15.75-2.44l-12.98,12.98-4.48,4.45-17.68,17.68-64.62,64.66,46.95,46.95-17.68,17.68-64.62-64.62,2.62-2.66,15.05-15.02,64.62-64.66,14.65-14.65,3.03-3.03,.04-.04L438.06,0h2.62c10.1,0,19.94,1.17,29.3,3.43,9.11,2.19,17.79,5.36,25.95,9.4,7,3.46,13.6,7.51,19.76,12.14,5.03,3.79,9.8,7.95,14.21,12.47,3.86,3.94,7.47,8.13,10.75,12.54,1.75,2.3,3.39,4.67,4.99,7.11,4.74,7.29,8.75,15.16,11.88,23.44,5.25,13.81,8.16,28.79,8.16,44.47Z"/>
    <path class="cls-2" d="M513.07,125.02l-2.66,2.59-30.65,30.69-91.67,91.67h-.04c-.87,0-1.71,.04-2.59,.04-10.1,0-19.9-1.2-29.3-3.46-9.08-2.19-17.79-5.36-25.95-9.4-7-3.43-13.6-7.51-19.76-12.14-5.07-3.79-9.8-7.95-14.21-12.47-3.86-3.94-7.47-8.13-10.79-12.54-1.75-2.3-3.39-4.67-4.92-7.07-4.77-7.33-8.78-15.16-11.92-23.44-5.29-13.81-8.16-28.83-8.16-44.5s2.88-30.65,8.13-44.47c3.17-8.27,7.18-16.15,11.92-23.44,1.57-2.44,3.21-4.81,4.96-7.11,7.11-9.44,15.53-17.9,25-25,13.38-10.06,28.87-17.5,45.67-21.54l21.83,21.83c-5.39,.4-10.68,1.24-15.78,2.44-27.15,6.49-49.97,23.98-63.49,47.57-4.48,7.76-7.95,16.22-10.21,25.15-1.97,7.87-3.03,16.11-3.03,24.57s1.06,16.73,3.06,24.6c2.22,8.93,5.69,17.39,10.17,25.19,4.23,7.33,9.37,14.11,15.24,20.12,9.88,10.1,21.83,18.08,35.25,23.29,4.19,1.64,8.53,3.03,13.01,4.08,5.1,1.24,10.39,2.08,15.82,2.44l60.07-60.07,39.66-39.62-31.35-31.35-15.64-15.64,17.68-17.68,62,62.04,2.66,2.62Z"/>
  </g>
  <g>
    <path class="cls-1" d="M368.67,377.29c-9.57-21.96-27.42-33.9-49.65-40.18-18.84-5.28-37.95-5.49-57.17-2.33-15.3,2.5-29.72,7.58-42.17,17.05-18.02,13.62-26.08,32.15-26.32,54.49-.34,30.75,15.27,54.56,43.61,66.57,15.51,6.55,31.71,10.34,48.49,9.75,7.97-.28,15.89-1.3,23.71-2.68,17.4-2.95,33.11-9.75,45.81-22.37,19.49-19.42,25.32-53.6,13.69-80.3Zm-37.03,65.75c-9.23,14.17-22.61,21.62-39.22,23.09-19.9,1.78-37.85-2.95-51.71-18.29-10.02-11.08-13.76-24.64-13.97-39.26-.27-16.51,3.81-31.6,15.72-43.79,8.65-8.89,19.42-13.73,31.54-15.68,13.69-2.2,26.97-1.03,39.36,5.59,14.34,7.69,22.58,20.07,26.05,35.69,1.2,5.46,1.76,11.1,1.92,14.03,.88,15.45-2.57,27.73-9.68,38.6Z"/>
    <path class="cls-1" d="M761.54,377.36c-9.54-21.96-27.38-33.94-49.62-40.22-18.8-5.32-37.95-5.52-57.13-2.4-15.34,2.54-29.72,7.58-42.21,17.05-18.02,13.62-26.11,32.15-26.39,54.46-.38,30.75,15.3,54.63,43.58,66.61,15.58,6.62,31.92,10.39,48.8,9.75,7.93-.3,15.89-1.3,23.71-2.68,17.36-3.02,33.08-9.85,45.71-22.55,19.35-19.42,25.12-53.43,13.55-80.02Zm-37.06,65.71c-9.23,14.17-22.65,21.62-39.26,23.06-19.9,1.75-37.82-2.95-51.68-18.32-10.02-11.08-13.76-24.67-13.97-39.26-.24-16.51,3.84-31.6,15.75-43.79,7.96-8.17,17.78-12.9,28.86-15.13,12.8-2.61,25.46-2.13,37.61,2.99,16.03,6.79,25.74,19.15,29.92,35.76,1.58,6.21,2.68,12.6,2.95,19.01,.55,12.78-3.16,24.88-10.19,35.69Z"/>
    <path class="cls-1" d="M561.73,394.83c-3.16-22.68-14.72-39.74-35.1-50.51-13.31-7.03-27.69-9.64-42.58-9.68-26.08-.07-52.16-.03-78.24-.03h-3.05v145.5h2.5c26.59,0,53.19,0,79.75-.03,9.78,0,19.39-1.37,28.69-4.39,19.53-6.31,34.32-18.22,42.72-37.3,6.14-13.93,7.38-28.62,5.32-43.55Zm-39.63,45.71c-7.55,15.96-20.83,24.33-38.64,24.64-16.16,.24-32.29,.03-48.45,.03-.41,0-.79-.1-1.34-.21v-115.16c.38-.17,.58-.31,.75-.31,17.88,.1,35.82-.51,53.67,.55,16.92,1,28.69,10.95,35.14,26.29,9.02,21.38,8.82,43.13-1.13,64.17Z"/>
    <path class="cls-1" d="M135.82,415.6h-43.51v-14.62h72.94c.08,.86,.22,1.74,.23,2.61,.01,22.4,0,44.8,.02,67.2,0,1.63-.06,2.77-2.14,3.33-30.62,8.18-61.61,10.52-92.94,5.34-16.3-2.69-31.65-8.22-44.89-18.48C7.75,447.19-.23,428.72,0,406.48c.31-28.88,14.73-48.53,40.15-60.76,16.16-7.77,33.46-11.08,51.23-12.35,23.5-1.68,46.75,.4,70.07,4.52v15.12c-6.03-.93-11.93-2.05-17.88-2.7-20.67-2.26-41.37-4.03-61.92,.95-14.74,3.57-27.82,10.07-37.4,22.35-9.12,11.69-11.81,25.16-10.71,39.57,2.04,26.6,19.73,43.69,44.81,50.31,15.19,4.01,30.59,3.41,46.02,2.23,3.16-.24,6.3-.73,9.45-.99,1.6-.13,2.36-.66,2.35-2.42-.06-15.14-.04-30.27-.06-45.41,0-.29-.13-.58-.31-1.29Z"/>
    <path class="cls-1" d="M795.71,334.71h30.44v145.19h-30.44v-145.19Z"/>
  </g>
</svg>